<svg width="30" height="30" viewBox="0 0 30 30" fill="none" xmlns="http://www.w3.org/2000/svg">
<rect width="30" height="30" rx="3" fill="#2663AF"/>
<g clip-path="url(#clip0_32_1893)">
<path fill-rule="evenodd" clip-rule="evenodd" d="M20.0864 23.9315C20.3681 24.131 20.7312 24.1809 21.055 24.0584C21.3787 23.935 21.6167 23.6585 21.6885 23.3234C22.4489 19.7499 24.2934 10.705 24.9855 7.45439C25.038 7.20939 24.9505 6.95476 24.758 6.79114C24.5655 6.62751 24.2986 6.58026 24.0606 6.66864C20.3917 8.02664 9.09285 12.266 4.4746 13.9749C4.18147 14.0834 3.99072 14.3651 4.00035 14.674C4.01085 14.9838 4.2191 15.2524 4.51922 15.3425C6.59035 15.962 9.30897 16.8239 9.30897 16.8239C9.30897 16.8239 10.5795 20.6608 11.2418 22.612C11.325 22.857 11.5166 23.0495 11.7695 23.116C12.0215 23.1816 12.291 23.1125 12.4791 22.9349C13.5431 21.9304 15.1881 20.3773 15.1881 20.3773C15.1881 20.3773 18.3136 22.6689 20.0864 23.9315ZM10.4526 16.3391L11.9217 21.1849L12.2481 18.1163C12.2481 18.1163 17.9242 12.9966 21.16 10.0785C21.2545 9.99276 21.2676 9.84926 21.1888 9.74864C21.111 9.64801 20.9675 9.62439 20.8598 9.69264C17.1096 12.0875 10.4526 16.3391 10.4526 16.3391Z" fill="#F8F8F8"/>
</g>
<defs>
<clipPath id="clip0_32_1893">
<rect width="21" height="21" fill="white" transform="translate(4 4)"/>
</clipPath>
</defs>
</svg>
