<svg width="23" height="24" viewBox="0 0 23 24" fill="none" xmlns="http://www.w3.org/2000/svg">
<path d="M5.33348 23.32L5.60348 23.02L5.84348 22.87L6.11348 23.02C6.50348 22.72 6.83348 22.39 7.10348 22.06C7.37348 21.73 7.88348 20.86 8.69348 19.51L10.5535 16.36C11.5435 14.68 16.7335 7.63 17.9035 6.31C20.6035 3.22 21.5035 2.29 21.8635 1.81C22.1935 1.39 22.4035 1.06 22.4035 0.819999C22.4035 0.669999 22.3135 0.429999 22.1635 0.429999C22.0135 0.429999 21.7735 0.549999 21.4735 0.76L21.7135 0.22L20.6935 0.819999L20.7535 0.399999C20.6935 0.579999 20.2135 1.06 20.0935 1.06C20.0035 1.06 19.9735 0.969999 19.9735 0.819999V0.699999L19.1335 1.12C19.0735 1.12 19.0135 1.09 19.0135 0.999999C19.0135 0.91 19.0735 0.699999 19.1335 0.399999C18.7135 0.849999 18.1135 1.36 17.3335 1.9C16.2835 2.62 12.2035 7.75 10.5535 10.42C9.44348 12.19 8.99348 13.24 8.81348 13.24C8.75348 13.24 8.72348 13.12 8.69348 12.88C8.15348 14.11 7.67348 15.13 7.19348 15.88C6.71348 16.63 6.26348 17.02 5.93348 17.02C5.54348 17.02 5.21348 16.27 4.85348 14.74C4.70348 14.08 4.37348 13.66 3.89348 13.42L3.80348 13.39C3.71348 13.39 3.59348 13.45 3.44348 13.54C3.29348 13.63 3.20348 13.72 3.14348 13.72H3.11348L2.57348 13.54L2.09348 14.26C2.03348 14.35 1.91348 14.38 1.82348 14.38C1.67348 14.38 1.55348 14.35 1.49348 14.26C1.37348 14.68 1.22348 14.89 1.10348 14.89C1.01348 14.89 0.833477 14.83 0.593477 14.68C0.803477 16.27 0.983477 17.32 1.16348 17.83C1.52348 18.82 2.33348 21.07 3.11348 22.57C3.20348 22.75 3.32348 22.96 3.41348 23.14C3.71348 22.96 3.80348 22.93 4.01348 22.93L4.25348 22.96C4.40348 23.02 4.49348 23.11 4.49348 23.26L5.18348 22.93C5.30348 22.93 5.33348 23.05 5.33348 23.32Z" fill="#2663AF"/>
</svg>
