<svg width="6" height="10" viewBox="0 0 6 10" fill="none" xmlns="http://www.w3.org/2000/svg">
<path d="M0.875844 9.703C0.816209 9.7021 0.758131 9.68237 0.70881 9.64625C0.659489 9.61014 0.621094 9.55923 0.598386 9.49984C0.575677 9.44045 0.569654 9.37519 0.581062 9.31214C0.59247 9.2491 0.620808 9.19105 0.662563 9.14519L4.5067 4.99988L0.662563 0.854564C0.605997 0.793647 0.574219 0.711026 0.574219 0.624876C0.574219 0.538726 0.605997 0.456105 0.662563 0.395188C0.719129 0.334272 0.795848 0.300049 0.875844 0.300049C0.95584 0.300049 1.03256 0.334272 1.08913 0.395188L5.15163 4.77019C5.18051 4.79981 5.20351 4.83545 5.21922 4.87493C5.23493 4.91441 5.24303 4.95692 5.24303 4.99988C5.24303 5.04283 5.23493 5.08534 5.21922 5.12482C5.20351 5.1643 5.18051 5.19994 5.15163 5.22956L1.08913 9.60456C1.06162 9.63567 1.02853 9.66043 0.991865 9.67735C0.955203 9.69427 0.915731 9.703 0.875844 9.703Z" fill="#F8F8F8" fill-opacity="0.5"/>
</svg>
