<svg width="21" height="21" viewBox="0 0 21 21" fill="none" xmlns="http://www.w3.org/2000/svg">
<path d="M18.7197 18.0304L15.0693 14.3718C16.3333 12.927 16.9862 11.0474 16.8903 9.13015C16.7943 7.21286 15.9569 5.40792 14.555 4.09651C13.1531 2.78509 11.2964 2.06986 9.37695 2.10186C7.45753 2.13386 5.62568 2.91059 4.26826 4.26801C2.91083 5.62544 2.13411 7.45728 2.1021 9.3767C2.0701 11.2961 2.78533 13.1528 4.09675 14.5548C5.40817 15.9567 7.21311 16.794 9.13039 16.89C11.0477 16.986 12.9272 16.333 14.3721 15.0691L18.0307 18.7195C18.122 18.8109 18.246 18.8622 18.3752 18.8622C18.5044 18.8622 18.6284 18.8109 18.7197 18.7195C18.8111 18.6281 18.8624 18.5042 18.8624 18.375C18.8624 18.2457 18.8111 18.1218 18.7197 18.0304ZM3.11738 9.51558C3.11738 8.25009 3.49265 7.01301 4.19571 5.9608C4.89878 4.90858 5.89808 4.08847 7.06725 3.60419C8.23641 3.11991 9.52292 2.9932 10.7641 3.24008C12.0053 3.48697 13.1454 4.09636 14.0402 4.9912C14.935 5.88604 15.5444 7.02613 15.7913 8.2673C16.0382 9.50848 15.9115 10.795 15.4272 11.9642C14.9429 13.1333 14.1228 14.1326 13.0706 14.8357C12.0184 15.5388 10.7813 15.914 9.51582 15.914C7.81952 15.9118 6.19331 15.237 4.99384 14.0376C3.79437 12.8381 3.11955 11.2119 3.11738 9.51558Z" fill="#EAEAEA"/>
</svg>
